<?xml version="1.0" encoding="iso-8859-1"?>
<!-- Generator: Adobe Illustrator 21.1.0, SVG Export Plug-In . SVG Version: 6.00 Build 0)  -->
<svg version="1.1" id="Layer_1" xmlns="http://www.w3.org/2000/svg" xmlns:xlink="http://www.w3.org/1999/xlink" x="0px" y="0px"
	 viewBox="0 0 100.353 100.353" style="enable-background:new 0 0 100.353 100.353;" xml:space="preserve">
<g>
	<path d="M65.108,40.122c0.014-0.083,0.021-0.168,0.021-0.255c0-5.925-3.523-11.031-8.578-13.367v-9.922c0-0.829-0.672-1.5-1.5-1.5
		h-9.389c-0.829,0-1.5,0.671-1.5,1.5v9.999c-4.773,2.314-8.13,7.223-8.488,13.2v0c-1.352,22.776-8.5,29.983-8.572,30.054
		l1.035,1.086v1.5h44.525c0.62,0,1.173-0.385,1.396-0.964c0.223-0.578,0.063-1.237-0.396-1.654
		C73.581,69.726,65.509,62.161,65.108,40.122z M47.163,18.078h6.389v7.407c-1.015-0.222-2.066-0.347-3.147-0.347
		c-1.118,0-2.199,0.139-3.242,0.379V18.078z M31.104,69.418c2.591-3.99,6.572-12.72,7.566-29.462
		c0.403-6.737,5.448-11.818,11.734-11.818c6.351,0,11.54,5.078,11.72,11.388c-0.016,0.092-0.023,0.186-0.022,0.281
		c0.238,16.646,4.636,25.609,7.389,29.61H31.104z" fill='#de5956'/>
	<path d="M58.996,73.616c-0.828,0-1.5,0.672-1.5,1.5c0,3.752-3.052,6.804-6.803,6.804c-3.751,0-6.803-3.052-6.803-6.804
		c0-0.828-0.671-1.5-1.5-1.5s-1.5,0.672-1.5,1.5c0,5.406,4.397,9.804,9.803,9.804c5.406,0,9.803-4.397,9.803-9.804
		C60.496,74.288,59.824,73.616,58.996,73.616z" fill='#de5956'/>
	<path d="M20.653,60.729c-3.299-2.436-5.192-6.181-5.192-10.272c0-3.911,1.756-7.549,4.818-9.981
		c0.648-0.515,0.757-1.459,0.241-2.107c-0.516-0.649-1.46-0.757-2.107-0.241c-3.782,3.005-5.952,7.499-5.952,12.33
		c0,4.979,2.396,9.723,6.41,12.687c0.268,0.197,0.581,0.293,0.89,0.293c0.459,0,0.914-0.211,1.208-0.609
		C21.46,62.16,21.319,61.221,20.653,60.729z" fill='#de5956'/>
	<path d="M5.777,50.456c0-6.503,2.821-12.681,7.74-16.951c0.625-0.543,0.692-1.491,0.149-2.116
		c-0.544-0.626-1.491-0.693-2.116-0.149c-5.575,4.84-8.773,11.844-8.773,19.217c0,7.604,3.374,14.759,9.255,19.629
		c0.28,0.231,0.619,0.345,0.956,0.345c0.432,0,0.86-0.186,1.156-0.543c0.528-0.639,0.439-1.584-0.199-2.112
		C8.754,63.476,5.777,57.164,5.777,50.456z" fill='#de5956'/>
	<path d="M81.593,38.631c-0.648-0.517-1.591-0.408-2.108,0.239c-0.516,0.648-0.408,1.592,0.239,2.107
		c3.062,2.438,4.819,6.077,4.819,9.983c0,4.089-1.895,7.833-5.198,10.271c-0.667,0.492-0.809,1.432-0.316,2.098
		c0.294,0.398,0.748,0.609,1.208,0.609c0.31,0,0.622-0.096,0.89-0.293c4.019-2.966,6.417-7.708,6.417-12.686
		C87.543,46.135,85.374,41.641,81.593,38.631z" fill='#de5956'/>
	<path d="M88.448,31.742c-0.627-0.544-1.573-0.477-2.116,0.149s-0.476,1.573,0.149,2.116c4.92,4.271,7.742,10.449,7.742,16.951
		c0,6.711-2.979,13.023-8.171,17.318c-0.639,0.528-0.728,1.474-0.2,2.112c0.297,0.358,0.726,0.544,1.157,0.544
		c0.337,0,0.676-0.112,0.955-0.344c5.884-4.868,9.259-12.022,9.259-19.631C97.224,43.588,94.025,36.583,88.448,31.742z" fill='#de5956'/>
</g>
</svg>
