<?xml version="1.0" standalone="no"?>
<!DOCTYPE svg PUBLIC "-//W3C//DTD SVG 20010904//EN"
 "http://www.w3.org/TR/2001/REC-SVG-20010904/DTD/svg10.dtd">
<svg version="1.0" xmlns="http://www.w3.org/2000/svg"
 width="713.000000pt" height="754.000000pt" viewBox="0 0 713.000000 754.000000"
 preserveAspectRatio="xMidYMid meet">
<metadata>
Created by potrace 1.16, written by Peter Selinger 2001-2019
</metadata>
<g transform="translate(0.000000,754.000000) scale(0.100000,-0.100000)"
fill="#000000" stroke="none">
<path d="M3435 7401 c-159 -104 -845 -546 -1170 -753 -738 -471 -1830 -1177
-1830 -1183 0 -12 908 -561 1215 -735 8 -5 52 -29 98 -55 48 -28 79 -51 75
-58 -3 -5 23 10 58 35 255 180 1848 1278 1854 1278 3 0 202 -123 443 -273 708
-442 828 -516 843 -522 8 -3 29 8 48 24 l34 29 -34 5 c-30 3 -28 4 11 5 35 2
48 7 59 25 13 21 13 21 -4 7 -16 -13 -72 -24 -59 -11 3 3 15 6 27 6 12 1 21 6
20 12 -2 7 6 10 17 8 10 -2 38 11 62 28 l43 32 -35 6 c-34 6 -34 6 10 8 35 1
48 6 59 24 13 21 13 21 -4 7 -16 -13 -72 -24 -59 -11 3 3 15 6 27 6 12 1 21 6
20 12 -2 7 6 10 17 8 10 -2 38 11 62 28 l43 32 -35 6 c-33 6 -32 6 13 8 26 0
47 5 47 10 0 5 -14 7 -30 6 -17 -1 -28 0 -25 4 4 3 21 6 38 6 21 1 31 5 29 14
-1 7 2 10 7 7 4 -3 28 9 52 27 l44 32 -35 6 c-33 6 -32 6 13 8 26 0 47 5 47
10 0 5 -13 7 -30 6 -16 -1 -28 1 -25 5 3 4 18 6 35 5 18 -2 38 5 52 17 13 11
35 27 51 36 15 9 27 20 27 23 0 4 -12 10 -27 12 -20 3 -15 4 15 6 23 0 42 5
42 10 0 5 -13 7 -30 6 -16 -1 -28 1 -25 5 3 4 18 6 35 5 18 -2 38 5 52 17 13
11 35 27 51 36 31 19 34 29 10 35 -10 3 -3 5 15 6 17 0 32 5 32 10 0 5 -14 7
-30 6 -17 -1 -28 0 -25 3 3 4 21 7 39 7 20 1 47 13 69 31 32 25 34 30 19 37
-11 5 -8 6 10 2 15 -3 30 -1 33 5 5 9 -7 14 -27 11 -3 0 -5 7 -4 16 2 11 13
18 28 18 18 1 25 -2 21 -12 -3 -7 11 1 31 19 20 17 35 32 33 34 -4 3 -667 398
-922 548 -137 82 -277 164 -310 184 -65 38 -573 353 -1076 665 -86 53 -158 97
-160 97 -2 0 -58 -36 -124 -79z"/>
<path d="M4143 4063 c4 -120 7 -453 7 -740 0 -417 3 -523 13 -523 7 0 36 16
66 35 29 19 55 35 58 35 2 0 23 12 46 28 23 15 51 32 62 39 11 7 88 53 170
103 83 50 159 96 170 103 11 7 39 24 62 40 23 15 44 27 47 27 3 0 24 12 48 28
24 15 52 32 63 39 11 7 65 39 120 73 55 34 109 66 120 73 11 7 39 24 63 40 24
15 45 27 48 27 3 0 24 12 47 28 23 15 51 32 62 39 11 7 89 53 173 104 84 51
149 95 145 100 -7 6 -284 98 -1433 475 -74 24 -141 44 -149 44 -12 0 -13 -35
-8 -217z"/>
<path d="M438 3298 c-2 -57 -5 -350 -6 -652 -3 -512 -2 -548 14 -542 19 7 321
188 373 223 18 12 38 20 44 16 6 -4 7 -1 2 7 -6 10 -4 12 11 6 10 -4 15 -4 11
0 -10 10 31 36 45 28 6 -4 8 -3 5 3 -4 6 10 19 31 29 20 10 43 25 51 32 7 7
20 11 28 8 8 -3 11 -2 8 4 -7 12 32 33 47 24 7 -4 8 -3 4 4 -6 10 44 44 60 41
4 0 10 4 13 9 7 11 137 91 154 95 6 1 17 7 24 14 29 26 124 74 134 67 7 -4 9
-3 5 4 -8 14 100 76 115 66 8 -4 9 -3 5 4 -8 14 30 36 46 26 6 -4 8 -3 4 4 -8
14 100 76 115 66 7 -4 9 -3 6 3 -4 6 9 20 28 32 l35 20 0 148 c0 81 -3 185 -7
231 l-6 82 -698 0 -698 0 -3 -102z"/>
<path d="M4400 2054 c-344 -218 -635 -400 -647 -406 -19 -9 -54 12 -285 169
-275 188 -302 205 -281 183 9 -10 8 -18 -7 -38 -11 -14 -20 -31 -20 -38 0 -8
-4 -14 -9 -14 -8 0 -51 -64 -50 -76 0 -2 -9 -16 -21 -31 -11 -14 -20 -32 -20
-39 0 -8 -4 -14 -9 -14 -8 0 -49 -62 -51 -78 -1 -4 -9 -15 -17 -25 -17 -18
-32 -43 -55 -87 -7 -14 -20 -30 -28 -37 -8 -7 -11 -13 -6 -13 6 0 -3 -13 -19
-30 -16 -16 -25 -30 -21 -30 4 0 -2 -12 -13 -26 -12 -15 -21 -32 -21 -39 0 -7
-7 -15 -15 -19 -8 -3 -15 -12 -15 -19 0 -8 -9 -22 -20 -32 -11 -10 -18 -20
-15 -23 2 -3 -5 -16 -15 -30 -11 -13 -20 -31 -20 -38 0 -8 -4 -14 -9 -14 -10
0 -56 -71 -53 -81 1 -4 -8 -15 -18 -24 -11 -10 -20 -22 -20 -27 0 -4 -16 -31
-35 -58 -19 -28 -32 -50 -29 -50 4 0 -1 -9 -11 -20 -18 -20 -34 -45 -57 -90
-7 -14 -19 -30 -26 -35 -11 -9 -10 -14 5 -27 16 -13 358 -237 923 -602 91 -59
172 -105 180 -103 18 5 1246 763 1275 787 11 10 139 87 285 172 146 85 506
296 800 468 294 173 555 325 579 339 25 13 39 27 33 29 -7 2 -10 8 -7 13 4 5
-1 6 -9 3 -9 -3 -16 -2 -16 4 0 5 -6 10 -12 9 -33 -1 -49 4 -43 13 3 6 -1 7
-9 4 -9 -3 -16 -2 -16 4 0 5 -6 10 -12 9 -33 -1 -49 4 -43 13 3 6 -1 7 -9 4
-9 -3 -16 -1 -16 5 0 6 -6 8 -14 5 -7 -3 -20 1 -27 9 -8 7 -20 12 -27 9 -6 -2
-12 1 -12 7 0 6 -6 8 -14 5 -7 -3 -20 1 -27 9 -8 7 -20 12 -27 9 -6 -2 -12 1
-12 7 0 6 -6 8 -14 5 -7 -3 -20 1 -27 9 -8 7 -20 12 -27 9 -6 -2 -12 1 -12 7
0 6 -6 8 -14 5 -7 -3 -20 1 -27 9 -8 7 -20 12 -27 9 -6 -2 -12 1 -12 7 0 6 -6
8 -14 5 -7 -3 -20 1 -27 9 -8 7 -20 12 -27 9 -6 -2 -12 1 -12 7 0 6 -6 8 -14
5 -7 -3 -20 1 -27 9 -8 7 -20 12 -27 9 -6 -2 -12 1 -12 7 0 6 -6 8 -14 5 -7
-3 -20 1 -27 9 -8 7 -20 12 -27 9 -6 -2 -12 1 -12 7 0 6 -6 8 -14 5 -7 -3 -20
1 -27 9 -8 7 -20 12 -27 9 -6 -2 -12 1 -12 7 0 6 -7 8 -15 5 -8 -4 -15 -1 -15
6 0 6 -4 8 -10 5 -5 -3 -10 -2 -10 4 0 6 -7 8 -15 5 -8 -4 -15 -1 -15 5 0 6
-7 8 -15 5 -8 -4 -15 -1 -15 6 0 6 -4 8 -10 5 -5 -3 -10 -2 -10 4 0 6 -7 8
-15 5 -8 -4 -15 -1 -15 5 0 6 -7 8 -15 5 -8 -4 -15 -1 -15 6 0 6 -4 8 -10 5
-5 -3 -10 -2 -10 4 0 6 -7 8 -15 5 -8 -4 -15 -1 -15 5 0 6 -7 8 -15 5 -8 -4
-15 -1 -15 6 0 6 -4 8 -10 5 -5 -3 -10 -2 -10 4 0 6 -7 8 -15 5 -8 -4 -15 -1
-15 5 0 6 -7 8 -15 5 -8 -4 -15 -1 -15 6 0 6 -4 8 -10 5 -5 -3 -10 -2 -10 4 0
6 -7 8 -15 5 -8 -4 -15 -1 -15 5 0 6 -7 8 -15 5 -8 -4 -15 -1 -15 6 0 6 -4 8
-10 5 -5 -3 -10 -2 -10 4 0 6 -7 8 -15 5 -8 -4 -15 -1 -15 5 0 6 -7 8 -15 5
-8 -4 -15 -1 -15 6 0 6 -4 8 -10 5 -5 -3 -10 -2 -10 4 0 6 -7 8 -15 5 -8 -4
-15 -1 -15 5 0 6 -7 8 -15 5 -8 -4 -15 -1 -15 6 0 6 -4 8 -10 5 -5 -3 -10 -3
-10 2 0 4 -17 9 -38 10 -33 2 -101 -39 -662 -393z"/>
</g>
</svg>
