<?xml version="1.0" standalone="no"?>
<!DOCTYPE svg PUBLIC "-//W3C//DTD SVG 20010904//EN"
 "http://www.w3.org/TR/2001/REC-SVG-20010904/DTD/svg10.dtd">
<svg version="1.0" xmlns="http://www.w3.org/2000/svg"
 width="64.000000pt" height="64.000000pt" viewBox="0 0 64.000000 64.000000"
 preserveAspectRatio="xMidYMid meet">
<metadata>
Created by potrace 1.16, written by Peter Selinger 2001-2019
</metadata>
<g transform="translate(0.000000,64.000000) scale(0.100000,-0.100000)"
fill="#000000" stroke="none">
<path d="M0 513 c1 -119 2 -125 14 -90 55 152 237 224 389 154 42 -19 57 -31
57 -46 0 -26 -20 -27 -63 -1 -79 47 -194 35 -268 -28 -84 -72 -110 -182 -65
-278 72 -154 267 -192 385 -73 44 43 63 85 70 149 5 46 9 55 26 55 18 0 20 -6
18 -52 -6 -152 -128 -266 -283 -266 -124 0 -226 70 -266 182 -12 33 -13 25
-14 -91 l0 -128 320 0 320 0 0 238 0 238 -168 -168 c-121 -121 -174 -168 -191
-168 -29 0 -177 141 -197 187 -18 41 -4 80 32 93 38 15 62 4 117 -48 l47 -46
128 126 c70 69 137 129 149 133 22 6 62 -9 75 -29 4 -6 8 10 8 37 l0 47 -320
0 -320 0 0 -127z"/>
<path d="M435 410 c-97 -97 -136 -130 -155 -130 -16 0 -42 17 -76 51 -35 34
-58 50 -68 46 -29 -11 -17 -31 64 -112 l80 -80 160 160 c89 88 159 167 158
175 -7 35 -41 13 -163 -110z"/>
</g>
</svg>
