<?xml version="1.0" encoding="iso-8859-1"?>
<!-- Generator: Adobe Illustrator 21.1.0, SVG Export Plug-In . SVG Version: 6.00 Build 0)  -->
<svg version="1.1" id="Layer_1" xmlns="http://www.w3.org/2000/svg" xmlns:xlink="http://www.w3.org/1999/xlink" x="0px" y="0px"
	 viewBox="0 0 100.354 100.352" style="enable-background:new 0 0 100.354 100.352;" xml:space="preserve">
<g>
	<path d="M81.031,19.808C72.849,11.69,62.009,7.225,50.489,7.225c-0.058,0-0.116,0-0.174,0C26.4,7.319,7.021,26.85,7.113,50.765
		c0.045,11.585,4.599,22.458,12.822,30.617c8.183,8.119,19.022,12.584,30.542,12.583c0.058,0,0.117,0,0.175,0
		c23.914-0.093,43.294-19.624,43.201-43.539C93.809,38.842,89.255,27.968,81.031,19.808z M50.641,90.965
		c-10.756,0.04-20.937-4.116-28.592-11.712s-11.894-17.717-11.936-28.5c-0.086-22.26,17.953-40.441,40.213-40.528
		c0.055,0,0.107,0,0.162,0c10.723,0,20.814,4.156,28.43,11.713c7.655,7.595,11.894,17.716,11.936,28.5
		C90.94,72.698,72.9,90.878,50.641,90.965z" fill='#5f72f2'/>
	<path d="M66.319,39.333c0.369-0.649,0.205-1.47-0.385-1.928s-1.425-0.412-1.963,0.107L51.283,49.801
		c-0.225-0.02-0.464-0.02-0.672-0.03c-3.988,0.016-7.22,3.273-7.206,7.261c0.007,1.932,0.767,3.745,2.139,5.106
		c1.364,1.354,3.171,2.098,5.09,2.098c0.01,0,0.021,0,0.032,0c1.932-0.007,3.746-0.767,5.107-2.138
		c1.36-1.372,2.105-3.191,2.098-5.122c-0.003-0.745-0.122-1.479-0.355-2.193L66.319,39.333z M54.492,55.272
		c0.249,0.556,0.377,1.133,0.379,1.715c0.005,1.131-0.432,2.195-1.228,2.998c-0.797,0.803-1.857,1.247-2.989,1.251
		c-1.131-0.022-2.195-0.431-2.998-1.228c-0.803-0.796-1.247-1.857-1.251-2.988c-0.009-2.333,1.883-4.239,4.215-4.249
		c0.003,0,0.007,0,0.01,0c0.285,0,0.576,0.03,0.865,0.09c0.484,0.098,0.988-0.047,1.346-0.393l5.667-5.488l-3.952,6.936
		C54.32,54.331,54.296,54.835,54.492,55.272z" fill='#5f72f2'/>
	<path d="M50.751,74.602c-0.006,0-0.012,0-0.019,0c-2.603,0.01-4.712,2.136-4.703,4.739c0.005,1.261,0.5,2.445,1.396,3.333
		c0.891,0.884,2.071,1.369,3.325,1.369c0.006,0,0.012,0,0.019,0c2.603-0.01,4.712-2.136,4.703-4.739
		C55.463,76.707,53.347,74.602,50.751,74.602z M50.758,81.043c-0.002,0-0.004,0-0.007,0c-0.458,0-0.888-0.177-1.212-0.499
		c-0.326-0.323-0.507-0.755-0.509-1.215c-0.003-0.949,0.765-1.724,1.714-1.728c0.002,0,0.004,0,0.007,0
		c0.946,0,1.717,0.768,1.721,1.714C52.477,80.265,51.707,81.039,50.758,81.043z" fill='#5f72f2'/>
	<path d="M50.5,17.95c-0.042,0-0.086,0-0.127,0c-8.67,0.033-16.808,3.441-22.915,9.595c-6.106,6.154-9.451,14.318-9.418,22.988
		c0.035,8.677,3.447,16.819,9.609,22.928c0.282,0.278,0.661,0.435,1.056,0.435c0.017,0,0.033,0,0.05-0.001
		c0.413-0.014,0.802-0.197,1.075-0.507l6.796-7.701c0.548-0.621,0.489-1.568-0.132-2.117c-0.621-0.546-1.569-0.487-2.117,0.133
		l-5.716,6.478c-4.896-5.396-7.591-12.316-7.62-19.658c-0.03-7.869,3.005-15.278,8.548-20.863s12.928-8.678,20.797-8.708
		c0.039,0,0.077,0,0.115,0c16.19,0,29.395,13.14,29.457,29.345c0.028,7.367-2.63,14.331-7.518,19.773l-5.773-5.729
		c-0.589-0.585-1.538-0.581-2.121,0.008c-0.584,0.588-0.58,1.538,0.008,2.121l6.864,6.812c0.281,0.279,0.661,0.436,1.057,0.436
		c0.002,0,0.004,0,0.006,0c0.397-0.002,0.778-0.161,1.059-0.443c6.107-6.154,9.452-14.318,9.419-22.989
		C82.887,32.427,68.34,17.95,50.5,17.95z" fill='#5f72f2'/>
</g>
</svg>
