<?xml version="1.0" standalone="no"?>
<!DOCTYPE svg PUBLIC "-//W3C//DTD SVG 20010904//EN"
 "http://www.w3.org/TR/2001/REC-SVG-20010904/DTD/svg10.dtd">
<svg version="1.0" xmlns="http://www.w3.org/2000/svg"
 width="1237.000000pt" height="657.000000pt" viewBox="0 0 1237.000000 657.000000"
 preserveAspectRatio="xMidYMid meet">
<metadata>
Created by potrace 1.16, written by Peter Selinger 2001-2019
</metadata>
<g transform="translate(0.000000,657.000000) scale(0.100000,-0.100000)"
fill="#000000" stroke="none">
<path d="M620 6320 l0 -250 5875 0 5875 0 0 250 0 250 -5875 0 -5875 0 0 -250z"/>
<path d="M223 6428 l-53 -30 0 -53 c0 -29 -2 -59 -5 -67 -3 -8 20 -29 59 -55
l64 -41 56 35 c47 30 56 41 56 64 0 24 -7 32 -36 44 -20 8 -40 15 -45 15 -16
0 -10 -42 8 -55 15 -11 14 -14 -10 -30 -25 -16 -27 -16 -59 6 -18 12 -34 23
-35 24 -1 0 -6 20 -11 43 -6 23 -6 39 -1 36 5 -3 24 7 43 21 33 25 36 26 66
10 29 -15 70 -13 70 4 0 9 -93 61 -106 60 -5 0 -33 -14 -61 -31z"/>
<path d="M5262 5898 c-8 -8 -12 -56 -12 -148 0 -92 4 -140 12 -148 9 -9 113
-12 405 -12 l393 0 0 160 0 160 -393 0 c-292 0 -396 -3 -405 -12z"/>
<path d="M1769 3951 c-16 -16 -29 -39 -29 -51 0 -28 52 -80 80 -80 28 0 80 52
80 80 0 28 -52 80 -80 80 -12 0 -35 -13 -51 -29z"/>
<path d="M940 2080 l0 -1270 5560 0 5560 0 0 1270 0 1270 -5560 0 -5560 0 0
-1270z m282 1133 c58 -55 18 -153 -62 -153 -48 0 -90 42 -90 89 0 81 94 120
152 64z m7523 -63 c0 -13 -52 -15 -394 -18 -232 -1 -399 2 -404 7 -28 28 11
31 401 29 345 -3 397 -5 397 -18z"/>
<path d="M1112 3200 c-45 -42 -13 -120 48 -120 36 0 70 34 70 71 0 35 -35 69
-70 69 -14 0 -36 -9 -48 -20z"/>
<path d="M7945 609 c-4 -6 -3 -15 2 -20 5 -5 172 -8 404 -7 342 3 394 5 394
18 0 13 -52 15 -397 18 -280 1 -399 -1 -403 -9z"/>
<path d="M7945 189 c-4 -6 -3 -15 2 -20 5 -5 172 -8 404 -7 342 3 394 5 394
18 0 13 -52 15 -397 18 -280 1 -399 -1 -403 -9z"/>
</g>
</svg>
