<?xml version="1.0" encoding="iso-8859-1"?>
<!-- Generator: Adobe Illustrator 19.0.0, SVG Export Plug-In . SVG Version: 6.00 Build 0)  -->
<svg xmlns="http://www.w3.org/2000/svg" xmlns:xlink="http://www.w3.org/1999/xlink" version="1.1" id="Capa_1" x="0px" y="0px" viewBox="0 0 512 512" style="enable-background:new 0 0 512 512;" xml:space="preserve" width="512px" height="512px">
<g>
	<g>
		<circle cx="128" cy="128" r="11.636" fill="#a5aec0"/>
	</g>
</g>
<g>
	<g>
		<circle cx="384" cy="128" r="11.636" fill="#a5aec0"/>
	</g>
</g>
<g>
	<g>
		<circle cx="128" cy="384" r="11.636" fill="#a5aec0"/>
	</g>
</g>
<g>
	<g>
		<circle cx="384" cy="384" r="11.636" fill="#a5aec0"/>
	</g>
</g>
<g>
	<g>
		<path d="M500.364,232.727c6.435,0,11.636-5.213,11.636-11.636c0-6.423-5.201-11.636-11.636-11.636h-58.182v-46.545h58.182    c6.435,0,11.636-5.213,11.636-11.636c0-6.423-5.201-11.636-11.636-11.636h-58.182V128c0-32.081-26.1-58.182-58.182-58.182h-11.636    V11.636C372.364,5.213,367.162,0,360.727,0c-6.435,0-11.636,5.213-11.636,11.636v58.182h-46.545V11.636    C302.545,5.213,297.344,0,290.909,0c-6.435,0-11.636,5.213-11.636,11.636v58.182h-46.545V11.636    C232.727,5.213,227.526,0,221.091,0c-6.435,0-11.636,5.213-11.636,11.636v58.182h-46.545V11.636    C162.909,5.213,157.708,0,151.273,0c-6.435,0-11.636,5.213-11.636,11.636v58.182H128c-32.081,0-58.182,26.1-58.182,58.182v11.636    H11.636C5.201,139.636,0,144.849,0,151.273c0,6.423,5.201,11.636,11.636,11.636h58.182v46.545H11.636    C5.201,209.455,0,214.668,0,221.091c0,6.423,5.201,11.636,11.636,11.636h58.182v46.545H11.636C5.201,279.273,0,284.486,0,290.909    s5.201,11.636,11.636,11.636h58.182v46.545H11.636C5.201,349.091,0,354.304,0,360.727s5.201,11.636,11.636,11.636h58.182V384    c0,32.081,26.1,58.182,58.182,58.182h11.636v58.182c0,6.423,5.201,11.636,11.636,11.636c6.435,0,11.636-5.213,11.636-11.636    v-58.182h46.545v58.182c0,6.423,5.201,11.636,11.636,11.636c6.435,0,11.636-5.213,11.636-11.636v-58.182h46.545v58.182    c0,6.423,5.201,11.636,11.636,11.636c6.435,0,11.636-5.213,11.636-11.636v-58.182h46.545v58.182    c0,6.423,5.201,11.636,11.636,11.636c6.435,0,11.636-5.213,11.636-11.636v-58.182H384c32.081,0,58.182-26.1,58.182-58.182v-11.636    h58.182c6.435,0,11.636-5.213,11.636-11.636s-5.201-11.636-11.636-11.636h-69.818c-6.435,0-11.636,5.213-11.636,11.636V384    c0,19.247-15.663,34.909-34.909,34.909H128c-19.247,0-34.909-15.663-34.909-34.909V128c0-19.247,15.663-34.909,34.909-34.909h256    c19.247,0,34.909,15.663,34.909,34.909v186.182c0,6.423,5.201,11.636,11.636,11.636s11.636-5.213,11.636-11.636v-11.636h58.182    c6.435,0,11.636-5.213,11.636-11.636s-5.201-11.636-11.636-11.636h-58.182v-46.545H500.364z" fill="#a5aec0"/>
	</g>
</g>
<g>
	<g>
		<path d="M221.091,186.182c-19.247,0-34.909,15.663-34.909,34.909c0,15.151,9.763,27.951,23.273,32.768v95.232h-34.909    c-6.412,0-11.625-5.225-11.625-11.636V174.545c0-6.412,5.213-11.636,11.636-11.636h69.807c6.435,0,11.636-5.213,11.636-11.636    c0-6.423-5.201-11.636-11.636-11.636h-69.807c-19.247,0-34.909,15.663-34.909,34.909v162.909    c0,19.247,15.663,34.909,34.897,34.909h46.545c6.435,0,11.636-5.213,11.636-11.636V253.859    c13.51-4.817,23.273-17.617,23.273-32.768C256,201.844,240.337,186.182,221.091,186.182z M221.091,232.727    c-6.423,0-11.636-5.225-11.636-11.636c0-6.412,5.213-11.636,11.636-11.636c6.423,0,11.636,5.225,11.636,11.636    C232.727,227.503,227.514,232.727,221.091,232.727z" fill="#a5aec0"/>
	</g>
</g>
<g>
	<g>
		<path d="M337.443,139.636h-46.534c-6.435,0-11.636,5.213-11.636,11.636v106.868C265.763,262.959,256,275.759,256,290.909    c0,19.247,15.663,34.909,34.909,34.909c19.247,0,34.909-15.663,34.909-34.909c0-15.151-9.763-27.951-23.273-32.768v-95.232h34.897    c6.423,0,11.636,5.225,11.636,11.636v162.909c0,6.412-5.213,11.636-11.636,11.636h-69.807c-6.435,0-11.636,5.213-11.636,11.636    s5.201,11.636,11.636,11.636h69.807c19.247,0,34.909-15.663,34.909-34.909V174.545    C372.352,155.299,356.689,139.636,337.443,139.636z M290.909,302.545c-6.423,0-11.636-5.225-11.636-11.636    c0-6.412,5.213-11.636,11.636-11.636s11.636,5.225,11.636,11.636C302.545,297.321,297.332,302.545,290.909,302.545z" fill="#a5aec0"/>
	</g>
</g>
<g>
</g>
<g>
</g>
<g>
</g>
<g>
</g>
<g>
</g>
<g>
</g>
<g>
</g>
<g>
</g>
<g>
</g>
<g>
</g>
<g>
</g>
<g>
</g>
<g>
</g>
<g>
</g>
<g>
</g>
</svg>
