<?xml version="1.0" encoding="iso-8859-1"?>
<!-- Generator: Adobe Illustrator 16.0.0, SVG Export Plug-In . SVG Version: 6.00 Build 0)  -->
<!DOCTYPE svg PUBLIC "-//W3C//DTD SVG 1.1//EN" "http://www.w3.org/Graphics/SVG/1.1/DTD/svg11.dtd">
<svg xmlns="http://www.w3.org/2000/svg" xmlns:xlink="http://www.w3.org/1999/xlink" version="1.1" id="Capa_1" x="0px" y="0px" width="512px" height="512px" viewBox="0 0 52.371 52.37" style="enable-background:new 0 0 52.371 52.37;" xml:space="preserve">
<g>
	<g>
		<g>
			<path d="M26.185,0c0,0-10.073,7.816-10.073,27.016c0,12.314,3.724,20.015,8.573,21.33V35.951c0-0.828,0.671-1.5,1.5-1.5     c0.829,0,1.5,0.672,1.5,1.5v12.395c4.849-1.315,8.572-9.016,8.572-21.33C36.257,7.594,26.185,0,26.185,0z M26.066,14.818     c-1.729,0-3.418-0.155-4.914-0.438c1.465-4.721,3.531-7.901,5.051-9.761c1.516,1.837,3.571,4.989,5.026,9.715     C29.677,14.648,27.896,14.818,26.066,14.818z" fill="#a5aec0"/>
			<path d="M13.408,35.504c-3.007,0-5.444,2.081-5.444,4.648V52.37l9.862-7.296c-1.463-2.496-2.556-5.737-3.201-9.57H13.408z" fill="#a5aec0"/>
			<path d="M38.96,35.504h-1.216c-0.646,3.833-1.738,7.074-3.201,9.57l9.862,7.296V40.152C44.405,37.585,41.968,35.504,38.96,35.504     z" fill="#a5aec0"/>
		</g>
	</g>
</g>
<g>
</g>
<g>
</g>
<g>
</g>
<g>
</g>
<g>
</g>
<g>
</g>
<g>
</g>
<g>
</g>
<g>
</g>
<g>
</g>
<g>
</g>
<g>
</g>
<g>
</g>
<g>
</g>
<g>
</g>
</svg>
